#!OML:ASF G:\JayActor3\Patient Classification 1\Patient 1\Session 6\male.ASF
:FULLY-SPECIFIED
:DEGREES
2836
root -1.59412 15.453 10.6573 29.9804 -67.8501 -6.73674
lowerback 36.4951 -0.65213 -0.00138499
upperback 6.77864 -1.34543 0.430495
thorax -10.6202 -0.850238 1.04658
lowerneck 2.34012 -2.65826 -0.25411
upperneck 3.83925 -3.84826 8.47452
head 0.993247 -1.89039 2.72752
rclavicle 2.42517e-014 1.59028e-014
rhumerus -34.6218 12.7439 -87.3078
rradius 64.8354
rwrist -0.384476
rhand -26.1922 -3.04778
rfingers 7.12502
rthumb 0.360132 -33.0272
lclavicle 2.42517e-014 1.59028e-014
lhumerus -40.9953 -17.4145 82.6354
lradius 69.5193
lwrist 33.7291
lhand -26.1109 2.4632
lfingers 7.12502
lthumb 0.43861 32.4425
rfemur -66.4748 0.77755 25.4588
rtibia 60.8979
rfoot -19.9561 -17.1609
rtoes -0.0342625
lfemur -63.9017 2.59928 -18.6883
ltibia 52.5685
lfoot -12.028 -7.6632
ltoes 15.6861
2837
root -1.59808 15.4574 10.669 29.9417 -67.9511 -6.65573
lowerback 36.4518 -0.675612 0.0155362
upperback 6.79351 -1.36838 0.438189
thorax -10.5875 -0.861692 1.05416
lowerneck 2.44665 -2.64849 -0.23691
upperneck 3.76238 -3.82526 8.44158
head 0.948027 -1.88343 2.7151
rclavicle -4.37326e-014 -6.48038e-014
rhumerus -34.6829 12.7853 -87.379
rradius 64.7464
rwrist -0.345068
rhand -26.1096 -3.04497
rfingers 7.12502
rthumb 0.43993 -33.0243
lclavicle -4.37326e-014 -6.48038e-014
lhumerus -41.0845 -17.4717 82.7378
lradius 69.2938
lwrist 33.6969
lhand -26.1151 2.49179
lfingers 7.12502
lthumb 0.434604 32.4711
rfemur -66.4636 0.861269 25.318
rtibia 60.8608
rfoot -19.9416 -17.1439
rtoes -0.016143
lfemur -63.8729 2.70149 -18.8432
ltibia 52.529
lfoot -12.031 -7.66177
ltoes 15.7168
2838
root -1.6025 15.4618 10.6801 29.8645 -68.0606 -6.54804
lowerback 36.4136 -0.694396 0.0170327
upperback 6.80816 -1.39233 0.438066
thorax -10.5568 -0.873236 1.06197
lowerneck 2.54102 -2.63753 -0.225224
upperneck 3.69228 -3.8022 8.42253
head 0.907598 -1.87602 2.70819
rclavicle -6.44062e-014 5.76476e-014
rhumerus -34.7305 12.8356 -87.4538
rradius 64.6243
rwrist -0.270702
rhand -26.0514 -3.01558
rfingers 7.12502
rthumb 0.496062 -32.9948
lclavicle -6.44062e-014 5.76476e-014
lhumerus -41.165 -17.5028 82.824
lradius 69.0628
lwrist 33.6393
lhand -26.1109 2.53399
lfingers 7.12502
lthumb 0.438666 32.5133
rfemur -66.4404 0.954412 25.1593
rtibia 60.8293
rfoot -19.9314 -17.1254
rtoes 0.00205837
lfemur -63.8262 2.82304 -19.0217
ltibia 52.4846
lfoot -12.0376 -7.66752
ltoes 15.7144
2839
root -1.60705 15.4659 10.6907 29.7549 -68.1793 -6.41473
lowerback 36.3791 -0.707385 0.00378054
upperback 6.82052 -1.41547 0.429949
thorax -10.53 -0.883982 1.06875
lowerneck 2.6217 -2.627 -0.213265
upperneck 3.63518 -3.78147 8.41227
head 0.874032 -1.86911 2.70397
rclavicle 2.0276e-014 8.74653e-015
rhumerus -34.7665 12.8945 -87.5314
rradius 64.4758
rwrist -0.17321
rhand -26.0021 -2.98954
rfingers 7.12502
rthumb 0.543677 -32.9686
lclavicle 2.0276e-014 8.74653e-015
lhumerus -41.2374 -17.5094 82.8948
lradius 68.8337
lwrist 33.578
lhand -26.0962 2.56371
lfingers 7.12502
lthumb 0.452813 32.543
rfemur -66.4137 1.05498 24.9861
rtibia 60.8027
rfoot -19.9187 -17.107
rtoes 0.00316729
lfemur -63.7697 2.95571 -19.2142
ltibia 52.4416
lfoot -12.0457 -7.68114
ltoes 15.7489
2840
root -1.61184 15.4696 10.7007 29.6531 -68.2919 -6.29473
lowerback 36.3438 -0.720078 -0.00380526
upperback 6.83113 -1.43624 0.41994
thorax -10.505 -0.893718 1.06956
lowerneck 2.69025 -2.61826 -0.19741
upperneck 3.58887 -3.76438 8.40663
head 0.84622 -1.86341 2.70038
rclavicle 2.78299e-014 -4.73108e-014
rhumerus -34.7915 12.9564 -87.6079
rradius 64.3092
rwrist -0.0639245
rhand -25.9779 -2.95986
rfingers 7.12502
rthumb 0.567057 -32.9389
lclavicle 2.78299e-014 -4.73108e-014
lhumerus -41.3001 -17.491 82.9515
lradius 68.6133
lwrist 33.524
lhand -26.0718 2.57587
lfingers 7.12502
lthumb 0.476365 32.5551
rfemur -66.3851 1.15568 24.8221
rtibia 60.7788
rfoot -19.904 -17.0896
rtoes -0.0068097
lfemur -63.7149 3.09531 -19.4034
ltibia 52.4041
lfoot -12.0591 -7.69105
ltoes 15.7316
